<?xml version="1.0" encoding="iso-8859-1"?>
<!-- Uploaded to: SVG Repo, www.svgrepo.com, Generator: SVG Repo Mixer Tools -->
<svg height="800px" width="800px" version="1.1" id="Layer_1" xmlns="http://www.w3.org/2000/svg" xmlns:xlink="http://www.w3.org/1999/xlink" 
	 viewBox="0 0 512 512" xml:space="preserve">
<path style="fill:#7ED63E;" d="M214.589,234.628c6.527,0,12.631-0.292,18.139-0.731v43.442c7.606-1.283,15.385-1.944,23.273-1.944
	c7.888,0,15.667,0.662,23.273,1.944v-67.741c3.717-17.543,18.25-103.677-39.728-161.657C203.126,11.523,155.457,3.879,121.882,3.879
	c-26.633,0-46.237,4.822-47.057,5.028c-9.438,2.361-16.413,10.339-17.487,20.008c-0.123,1.105-2.968,27.39-0.047,59.532
	c4.146,45.607,17.481,79.965,39.633,102.116C133.342,226.98,181.012,234.628,214.589,234.628z"/>
<path style="fill:#A78966;" d="M376.996,345.288c-20.855-36.197-56.784-61.052-97.724-67.95c-7.605-1.283-15.385-1.944-23.273-1.944
	c-7.888,0-15.667,0.662-23.273,1.944c-40.941,6.898-76.868,31.753-97.724,67.95C60.144,347.741,0,409.403,0,484.848
	c0,12.854,10.42,23.273,23.273,23.273H256h232.727c12.853,0,23.273-10.418,23.273-23.273
	C512,409.403,451.855,347.741,376.996,345.288z"/>
<path style="fill:#806749;" d="M232.727,277.338c-40.941,6.898-76.868,31.753-97.724,67.95C60.144,347.741,0,409.404,0,484.848
	c0,12.854,10.42,23.273,23.273,23.273H256V275.394C248.112,275.394,240.333,276.056,232.727,277.338z"/>
</svg>